<?xml version="1.0" encoding="UTF-8"?>
<!DOCTYPE svg PUBLIC "-//W3C//DTD SVG 1.1//EN" "http://www.w3.org/Graphics/SVG/1.1/DTD/svg11.dtd">
<!-- Creator: CorelDRAW -->
<svg xmlns="http://www.w3.org/2000/svg" xml:space="preserve" width="238.859mm" height="37.5048mm" style="shape-rendering:geometricPrecision; text-rendering:geometricPrecision; image-rendering:optimizeQuality; fill-rule:evenodd; clip-rule:evenodd"
viewBox="0 0 464.616 72.9524"
 xmlns:xlink="http://www.w3.org/1999/xlink">
 <defs>
  <style type="text/css">
   <![CDATA[
    .str0 {stroke:#AB64FF;stroke-width:0.14822}
    .fil5 {fill:none;fill-rule:nonzero}
    .fil0 {fill:#B70825;fill-rule:nonzero}
    .fil2 {fill:#BA71FF;fill-rule:nonzero}
    .fil6 {fill:url(#id0);fill-rule:nonzero}
    .fil4 {fill:url(#id1);fill-rule:nonzero}
    .fil3 {fill:url(#id2);fill-rule:nonzero}
    .fil1 {fill:url(#id3);fill-rule:nonzero}
   ]]>
  </style>
  <radialGradient id="id0" gradientUnits="userSpaceOnUse" cx="200.134" cy="40.1164" r="181.107" fx="200.134" fy="40.1164">
   <stop offset="0" style="stop-color:#C77CFF"/>
   <stop offset="1" style="stop-color:#9E58FF"/>
  </radialGradient>
  <linearGradient id="id1" gradientUnits="userSpaceOnUse" x1="14.8403" y1="64.8285" x2="62.8346" y2="64.8285">
   <stop offset="0" style="stop-color:#BA71FF"/>
   <stop offset="0.341176" style="stop-color:#DCB7FF"/>
   <stop offset="1" style="stop-color:#FEFEFE"/>
  </linearGradient>
  <linearGradient id="id2" gradientUnits="userSpaceOnUse" x1="63.6533" y1="47.8054" x2="34.3687" y2="48.3873">
   <stop offset="0" style="stop-color:#A25CFF"/>
   <stop offset="1" style="stop-color:#FEFEFE"/>
  </linearGradient>
  <linearGradient id="id3" gradientUnits="userSpaceOnUse" x1="29.6653" y1="15.604" x2="19.0973" y2="37.7464">
   <stop offset="0" style="stop-color:#A25CE1"/>
   <stop offset="0.45098" style="stop-color:#B26AF0"/>
   <stop offset="1" style="stop-color:#C378FF"/>
  </linearGradient>
 </defs>
 <g id="Layer_x0020_1">
  <metadata id="CorelCorpID_0Corel-Layer"/>
  <g id="_261318576">
   <path id="_261313776" class="fil0" d="M3.03502 70.7291c-2.72904,-1.38475 -3.81872,-4.71971 -2.43397,-7.44876l28.5289 -56.222c1.35674,-2.674 4.09143,-4.31395 7.10213,-4.24295 2.89963,0.0680802 5.49777,1.82008 6.81016,4.40654l18.0807 35.9524c1.22408,2.41218 1.11535,5.22623 -0.288271,7.53512 -1.43377,2.35888 -4.06225,3.72749 -6.82261,3.72749l-18.1138 0c-3.06011,0 -5.54095,-2.48084 -5.54095,-5.54115 0,-3.06011 2.48084,-5.54095 5.54095,-5.54095l12.8891 0 -12.7427 -25.4324 -25.561 50.3728c-1.38475,2.72904 -4.71971,3.81872 -7.44876,2.43397z"/>
   <path id="_261313752" class="fil1" d="M3.03502 70.7291c-2.72904,-1.38495 -3.81872,-4.71991 -2.43377,-7.44895l28.5289 -56.2218c1.35655,-2.674 4.09123,-4.31395 7.10213,-4.24295 2.89944,0.0680802 5.49758,1.81988 6.80997,4.40654l18.0807 35.9524c1.22408,2.41218 1.11535,5.22623 -0.288077,7.53531 -1.43396,2.35869 -4.06244,3.7271 -6.823,3.7271l-18.1136 0c-3.06011,0 -5.54095,-2.48065 -5.54095,-5.54095 0,-3.0603 2.48084,-5.54095 5.54095,-5.54095l12.8893 0 -12.7429 -25.4324 -25.5608 50.3728c-1.38495,2.72904 -4.71991,3.81872 -7.44895,2.43397z"/>
   <path id="_261313272" class="fil2" d="M64.0619 71.3302l-37.4334 0c-3.0603,0 -5.54115,-2.48104 -5.54115,-5.54134 0,-3.06011 2.48084,-5.54115 5.54115,-5.54115l37.4334 0c3.0603,0 5.54115,2.48104 5.54115,5.54115 0,3.0603 -2.48084,5.54134 -5.54115,5.54134z"/>
   <path id="_261313632" class="fil2" d="M60.8349 50.7097c1.40343,-2.30909 1.51216,-5.12313 0.288077,-7.53531l-18.0807 -35.9524c-1.31239,-2.58666 -3.91053,-4.33846 -6.80997,-4.40654 -3.0109,-0.070998 -5.74558,1.56896 -7.10213,4.24295l-5.19063 10.229 0.000194515 0c8.20834,-8.08676 12.1051,0.635091 12.1051,0.635091l12.7429 25.4324 -12.8893 0c-3.06011,0 -5.54095,2.48065 -5.54095,5.54095 0,3.0603 2.48084,5.54095 5.54095,5.54095l18.1136 0c2.76056,0 5.38904,-1.36841 6.823,-3.7271z"/>
   <path id="_261312792" class="fil3" d="M48.7877 43.3549l-12.8893 0c-3.06011,0 -5.54095,2.48065 -5.54095,5.54095 0,3.0603 2.48084,5.54095 5.54095,5.54095l7.87007 0c10.8975,-1.43766 5.01926,-11.0819 5.01926,-11.0819z"/>
   <path id="_261312504" class="fil4" d="M69.6031 65.7888c0,-3.06011 -2.48084,-5.54115 -5.54115,-5.54115l-37.4334 0c0,0 -1.60086,11.0825 23.0265,11.0825l14.4069 0c3.0603,0 5.54115,-2.48104 5.54115,-5.54134z"/>
  </g>
  <g>
   <path class="fil5 str0" d="M147.047 71.5716c-0.602607,-2.24003 -1.27388,-4.54251 -2.01362,-6.90703 -0.73974,-2.36452 -1.46567,-4.72924 -2.17798,-7.09377l-22.191 0c-0.712119,2.36452 -1.43805,4.72924 -2.17798,7.09377 -0.739546,2.36452 -1.41082,4.667 -2.01342,6.90703l-13.3145 0c2.13694,-6.96928 4.16418,-13.4097 6.0819,-19.3212 1.91772,-5.9115 3.7944,-11.4807 5.63004,-16.7077 1.83544,-5.22681 3.64346,-10.1895 5.42424,-14.8874 1.78078,-4.69812 3.63004,-9.28731 5.54776,-13.7676l12.2461 0c1.86287,4.48026 3.69851,9.06945 5.50672,13.7676 1.80821,4.69792 3.62984,9.66058 5.46548,14.8874 1.83564,5.22701 3.71212,10.7962 5.62985,16.7077 1.91772,5.9115 3.94515,12.3519 6.0819,19.3212l-13.7254 0zm-15.3692 -50.0296c-0.274072,0.933477 -0.684887,2.20911 -1.23284,3.82689 -0.547949,1.61798 -1.17818,3.48474 -1.89049,5.60047 -0.712119,2.11554 -1.4929,4.44914 -2.34215,7.0004 -0.849447,2.55126 -1.71232,5.22681 -2.58899,8.02705l16.191 0c-0.876679,-2.80024 -1.72593,-5.47579 -2.54776,-8.02705 -0.82202,-2.55126 -1.60261,-4.88485 -2.34235,-7.0004 -0.73974,-2.11574 -1.38358,-3.9825 -1.93134,-5.60047 -0.547949,-1.61778 -0.986385,-2.89341 -1.31512,-3.82689z"/>
  </g>
  <g>
   <path id="1" class="fil5 str0" d="M180.705 61.5844c2.24645,0 3.83545,-0.248979 4.76678,-0.746743 0.931532,-0.497764 1.3974,-1.46236 1.3974,-2.8936 0,-1.12002 -0.602802,-2.09998 -1.80821,-2.94009 -1.20541,-0.84011 -3.04105,-1.78895 -5.50652,-2.84692 -1.91792,-0.808793 -3.65766,-1.6489 -5.21903,-2.52014 -1.56157,-0.871038 -2.8903,-1.91344 -3.98619,-3.12683 -1.0959,-1.21338 -1.94515,-2.66019 -2.54776,-4.34021 -0.602802,-1.68003 -0.904105,-3.7024 -0.904105,-6.06712 0,-4.60456 1.50671,-8.2449 4.52033,-10.9205 3.01362,-2.67575 7.15037,-4.01362 12.4104,-4.01362 2.63004,0 5.15037,0.264346 7.56138,0.793426 2.41062,0.528886 4.32854,1.10446 5.75317,1.72671l-2.13694 10.8273c-1.42463,-0.560009 -2.97238,-1.05777 -4.64366,-1.49349 -1.67108,-0.435519 -3.54776,-0.653376 -5.62985,-0.653376 -3.83564,0 -5.75317,1.21338 -5.75317,3.64035 0,0.560009 0.0820853,1.05777 0.24645,1.49329 0.164365,0.435713 0.493095,0.855671 0.986385,1.26007 0.493095,0.404591 1.16437,0.84011 2.01342,1.30675 0.849447,0.466836 1.93153,0.980161 3.24645,1.54017 2.68508,1.12002 4.90411,2.22447 6.65727,3.31356 1.75336,1.08889 3.13694,2.27116 4.15056,3.54679 1.01362,1.27563 1.72593,2.69131 2.13694,4.24684 0.41101,1.55573 0.616418,3.36025 0.616418,5.41374 0,4.85354 -1.6028,8.52501 -4.80802,11.014 -3.20541,2.48901 -7.73955,3.73352 -13.6022,3.73352 -3.83545,0 -7.02705,-0.373274 -9.5748,-1.12002 -2.54795,-0.746743 -4.31492,-1.369 -5.30131,-1.86676l2.05486 -11.2941c2.08209,0.933477 4.21883,1.66466 6.41063,2.19354 2.1916,0.528886 4.35597,0.793426 6.49291,0.793426z"/>
  </g>
  <g>
   <path id="12" class="fil5 str0" d="M221.348 71.5716l-12.2461 0 0 -49.0962 12.2461 0 0 49.0962zm1.15056 -63.2837c0,2.55126 -0.726124,4.55807 -2.17798,6.02043 -1.45205,1.46217 -3.16437,2.19335 -5.13675,2.19335 -1.97258,0 -3.6847,-0.731182 -5.13675,-2.19335 -1.45205,-1.46236 -2.17798,-3.46917 -2.17798,-6.02043 0,-2.55126 0.72593,-4.55807 2.17798,-6.02043 1.45205,-1.46217 3.16417,-2.19335 5.13675,-2.19335 1.97238,0 3.6847,0.731182 5.13675,2.19335 1.45186,1.46236 2.17798,3.46917 2.17798,6.02043z"/>
  </g>
  <g>
   <path id="123" class="fil5 str0" d="M246.211 61.5844c2.24645,0 3.83545,-0.248979 4.76678,-0.746743 0.931532,-0.497764 1.3974,-1.46236 1.3974,-2.8936 0,-1.12002 -0.602802,-2.09998 -1.80821,-2.94009 -1.20541,-0.84011 -3.04105,-1.78895 -5.50652,-2.84692 -1.91792,-0.808793 -3.65766,-1.6489 -5.21903,-2.52014 -1.56157,-0.871038 -2.8903,-1.91344 -3.98619,-3.12683 -1.0959,-1.21338 -1.94515,-2.66019 -2.54776,-4.34021 -0.602802,-1.68003 -0.904105,-3.7024 -0.904105,-6.06712 0,-4.60456 1.50671,-8.2449 4.52033,-10.9205 3.01362,-2.67575 7.15037,-4.01362 12.4104,-4.01362 2.63004,0 5.15037,0.264346 7.56138,0.793426 2.41062,0.528886 4.32854,1.10446 5.75317,1.72671l-2.13694 10.8273c-1.42463,-0.560009 -2.97238,-1.05777 -4.64366,-1.49349 -1.67108,-0.435519 -3.54776,-0.653376 -5.62985,-0.653376 -3.83564,0 -5.75317,1.21338 -5.75317,3.64035 0,0.560009 0.0820853,1.05777 0.24645,1.49329 0.164365,0.435713 0.493095,0.855671 0.986385,1.26007 0.493095,0.404591 1.16437,0.84011 2.01342,1.30675 0.849447,0.466836 1.93153,0.980161 3.24645,1.54017 2.68508,1.12002 4.90411,2.22447 6.65727,3.31356 1.75336,1.08889 3.13694,2.27116 4.15056,3.54679 1.01362,1.27563 1.72593,2.69131 2.13694,4.24684 0.41101,1.55573 0.616418,3.36025 0.616418,5.41374 0,4.85354 -1.6028,8.52501 -4.80802,11.014 -3.20541,2.48901 -7.73955,3.73352 -13.6022,3.73352 -3.83545,0 -7.02705,-0.373274 -9.5748,-1.12002 -2.54795,-0.746743 -4.31492,-1.369 -5.30131,-1.86676l2.05486 -11.2941c2.08209,0.933477 4.21883,1.66466 6.41063,2.19354 2.1916,0.528886 4.35597,0.793426 6.49291,0.793426z"/>
  </g>
  <g>
   <path id="1234" class="fil5 str0" d="M274.198 10.248l12.2459 -2.24023 0 14.4676 14.7117 0 0 11.574 -14.7117 0 0 17.2677c0,2.92453 0.452053,5.25793 1.35596,7.0004 0.9043,1.74227 2.72613,2.6135 5.46568,2.6135 1.31492,0 2.67108,-0.140051 4.06828,-0.420152 1.3972,-0.279907 2.67127,-0.668937 3.82183,-1.1667l1.72593 10.8273c-1.47948,0.684498 -3.12313,1.27563 -4.93134,1.77339 -1.80802,0.497958 -4.02724,0.746743 -6.65727,0.746743 -3.34235,0 -6.10933,-0.513325 -8.30093,-1.53997 -2.1916,-1.02684 -3.94515,-2.45789 -5.26007,-4.29372 -1.31492,-1.83564 -2.23284,-4.06011 -2.75336,-6.67361 -0.520522,-2.6135 -0.780588,-5.50711 -0.780588,-8.68062l0 -41.2556z"/>
  </g>
  <g>
   <path id="12345" class="fil5 str0" d="M309.992 47.3969c0,-4.35577 0.588991,-8.1671 1.76717,-11.434 1.17798,-3.26688 2.72574,-5.98931 4.64366,-8.16729 1.91772,-2.17779 4.12313,-3.82689 6.61604,-4.9469 2.4931,-1.12002 5.05467,-1.68003 7.6847,-1.68003 6.13675,0 10.9858,2.13111 14.5474,6.39371 3.56137,4.26241 5.34216,10.5316 5.34216,18.8076 0,0.808988 -0.0274266,1.69578 -0.0822798,2.66019 -0.0546587,0.9646 -0.109317,1.82008 -0.164171,2.56682l-27.7798 0c0.274072,2.86248 1.45225,5.13364 3.53414,6.81386 2.08209,1.68003 4.87649,2.52014 8.3832,2.52014 2.24665,0 4.45186,-0.233418 6.61623,-0.700059 2.16417,-0.466836 3.93134,-1.04241 5.30112,-1.7269l1.64385 11.2941c-0.65746,0.373274 -1.53414,0.746743 -2.63004,1.12002 -1.0959,0.373274 -2.31492,0.700059 -3.65746,0.979966 -1.34235,0.280102 -2.78059,0.513519 -4.31473,0.700059 -1.53433,0.186734 -3.06847,0.280102 -4.60261,0.280102 -3.8903,0 -7.27369,-0.653376 -10.1504,-1.96013 -2.87649,-1.30675 -5.26007,-3.09571 -7.15017,-5.36706 -1.89049,-2.27116 -3.28769,-4.96247 -4.1918,-8.07373 -0.903911,-3.11127 -1.35616,-6.47151 -1.35616,-10.0805zm28.766 -5.32037c-0.0548532,-1.18226 -0.232834,-2.3334 -0.534333,-3.45342 -0.301304,-1.12021 -0.766972,-2.11574 -1.39701,-2.98697 -0.630228,-0.871038 -1.42482,-1.58666 -2.38359,-2.14667 -0.958764,-0.560203 -2.15056,-0.84011 -3.57518,-0.84011 -1.36977,0 -2.54776,0.264346 -3.53395,0.793426 -0.986385,0.528886 -1.80821,1.22895 -2.46587,2.09998 -0.65746,0.871232 -1.16437,1.88232 -1.52033,3.03366 -0.356351,1.15114 -0.616418,2.31784 -0.780977,3.5001l16.1912 0z"/>
  </g>
  <g>
   <path id="123456" class="fil5 str0" d="M360.991 24.1554c2.08209,-0.684498 4.76678,-1.32231 8.05428,-1.91344 3.28769,-0.591131 6.73975,-0.886599 10.3558,-0.886599 3.67127,0 6.72574,0.544447 9.16418,1.63334 2.43805,1.08889 4.36958,2.62906 5.79421,4.62031 1.42463,1.99125 2.43824,4.35577 3.04085,7.09377 0.602802,2.7378 0.9043,5.78701 0.9043,9.14707l0 27.7217 -12.2463 0 0 -26.0415c0,-4.48026 -0.520522,-7.65377 -1.56157,-9.52053 -1.04104,-1.86676 -2.98619,-2.80024 -5.83545,-2.80024 -0.876484,0 -1.80802,0.0466836 -2.7944,0.140051 -0.986191,0.0933672 -1.86268,0.202101 -2.62984,0.326591l0 37.8956 -12.2461 0 0 -47.4161z"/>
  </g>
  <g>
   <path id="1234567" class="fil5 str0" d="M422.757 61.5844c2.24645,0 3.83545,-0.248979 4.76678,-0.746743 0.931532,-0.497764 1.3974,-1.46236 1.3974,-2.8936 0,-1.12002 -0.602802,-2.09998 -1.80821,-2.94009 -1.20541,-0.84011 -3.04105,-1.78895 -5.50652,-2.84692 -1.91792,-0.808793 -3.65766,-1.6489 -5.21903,-2.52014 -1.56157,-0.871038 -2.8903,-1.91344 -3.98619,-3.12683 -1.0959,-1.21338 -1.94515,-2.66019 -2.54776,-4.34021 -0.602802,-1.68003 -0.904105,-3.7024 -0.904105,-6.06712 0,-4.60456 1.50671,-8.2449 4.52033,-10.9205 3.01362,-2.67575 7.15037,-4.01362 12.4104,-4.01362 2.63004,0 5.15037,0.264346 7.56138,0.793426 2.41062,0.528886 4.32854,1.10446 5.75317,1.72671l-2.13694 10.8273c-1.42463,-0.560009 -2.97238,-1.05777 -4.64366,-1.49349 -1.67108,-0.435519 -3.54776,-0.653376 -5.62985,-0.653376 -3.83564,0 -5.75317,1.21338 -5.75317,3.64035 0,0.560009 0.0820853,1.05777 0.24645,1.49329 0.164365,0.435713 0.493095,0.855671 0.986385,1.26007 0.493095,0.404591 1.16437,0.84011 2.01342,1.30675 0.849447,0.466836 1.93153,0.980161 3.24645,1.54017 2.68508,1.12002 4.90411,2.22447 6.65727,3.31356 1.75336,1.08889 3.13694,2.27116 4.15056,3.54679 1.01362,1.27563 1.72593,2.69131 2.13694,4.24684 0.41101,1.55573 0.616418,3.36025 0.616418,5.41374 0,4.85354 -1.6028,8.52501 -4.80802,11.014 -3.20541,2.48901 -7.73955,3.73352 -13.6022,3.73352 -3.83545,0 -7.02705,-0.373274 -9.5748,-1.12002 -2.54795,-0.746743 -4.31492,-1.369 -5.30131,-1.86676l2.05486 -11.2941c2.08209,0.933477 4.21883,1.66466 6.41063,2.19354 2.1916,0.528886 4.35597,0.793426 6.49291,0.793426z"/>
  </g>
  <g>
   <path id="12345678" class="fil5 str0" d="M463.401 71.5716l-12.2461 0 0 -49.0962 12.2461 0 0 49.0962zm1.15056 -63.2837c0,2.55126 -0.726124,4.55807 -2.17798,6.02043 -1.45205,1.46217 -3.16437,2.19335 -5.13675,2.19335 -1.97258,0 -3.6847,-0.731182 -5.13675,-2.19335 -1.45205,-1.46236 -2.17798,-3.46917 -2.17798,-6.02043 0,-2.55126 0.72593,-4.55807 2.17798,-6.02043 1.45205,-1.46217 3.16417,-2.19335 5.13675,-2.19335 1.97238,0 3.6847,0.731182 5.13675,2.19335 1.45186,1.46236 2.17798,3.46917 2.17798,6.02043z"/>
  </g>
  <g transform="matrix(0.880538 0 0 1 180.583 -153.143)">
   <path id="123456789" class="fil6" d="M147.047 71.5716c-0.602607,-2.24003 -1.27388,-4.54251 -2.01362,-6.90703 -0.73974,-2.36452 -1.46567,-4.72924 -2.17798,-7.09377l-22.191 0c-0.712119,2.36452 -1.43805,4.72924 -2.17798,7.09377 -0.739546,2.36452 -1.41082,4.667 -2.01342,6.90703l-13.3145 0c2.13694,-6.96928 4.16418,-13.4097 6.0819,-19.3212 1.91772,-5.9115 3.7944,-11.4807 5.63004,-16.7077 1.83544,-5.22681 3.64346,-10.1895 5.42424,-14.8874 1.78078,-4.69812 3.63004,-9.28731 5.54776,-13.7676l12.2461 0c1.86287,4.48026 3.69851,9.06945 5.50672,13.7676 1.80821,4.69792 3.62984,9.66058 5.46548,14.8874 1.83564,5.22701 3.71212,10.7962 5.62985,16.7077 1.91772,5.9115 3.94515,12.3519 6.0819,19.3212l-13.7254 0zm-15.3692 -50.0296c-0.274072,0.933477 -0.684887,2.20911 -1.23284,3.82689 -0.547949,1.61798 -1.17818,3.48474 -1.89049,5.60047 -0.712119,2.11554 -1.4929,4.44914 -2.34215,7.0004 -0.849447,2.55126 -1.71232,5.22681 -2.58899,8.02705l16.191 0c-0.876679,-2.80024 -1.72593,-5.47579 -2.54776,-8.02705 -0.82202,-2.55126 -1.60261,-4.88485 -2.34235,-7.0004 -0.73974,-2.11574 -1.38358,-3.9825 -1.93134,-5.60047 -0.547949,-1.61778 -0.986385,-2.89341 -1.31512,-3.82689z"/>
   <path id="12345678910" class="fil6" d="M180.705 61.5844c2.24645,0 3.83545,-0.248979 4.76678,-0.746743 0.931532,-0.497764 1.3974,-1.46236 1.3974,-2.8936 0,-1.12002 -0.602802,-2.09998 -1.80821,-2.94009 -1.20541,-0.84011 -3.04105,-1.78895 -5.50652,-2.84692 -1.91792,-0.808793 -3.65766,-1.6489 -5.21903,-2.52014 -1.56157,-0.871038 -2.8903,-1.91344 -3.98619,-3.12683 -1.0959,-1.21338 -1.94515,-2.66019 -2.54776,-4.34021 -0.602802,-1.68003 -0.904105,-3.7024 -0.904105,-6.06712 0,-4.60456 1.50671,-8.2449 4.52033,-10.9205 3.01362,-2.67575 7.15037,-4.01362 12.4104,-4.01362 2.63004,0 5.15037,0.264346 7.56138,0.793426 2.41062,0.528886 4.32854,1.10446 5.75317,1.72671l-2.13694 10.8273c-1.42463,-0.560009 -2.97238,-1.05777 -4.64366,-1.49349 -1.67108,-0.435519 -3.54776,-0.653376 -5.62985,-0.653376 -3.83564,0 -5.75317,1.21338 -5.75317,3.64035 0,0.560009 0.0820853,1.05777 0.24645,1.49329 0.164365,0.435713 0.493095,0.855671 0.986385,1.26007 0.493095,0.404591 1.16437,0.84011 2.01342,1.30675 0.849447,0.466836 1.93153,0.980161 3.24645,1.54017 2.68508,1.12002 4.90411,2.22447 6.65727,3.31356 1.75336,1.08889 3.13694,2.27116 4.15056,3.54679 1.01362,1.27563 1.72593,2.69131 2.13694,4.24684 0.41101,1.55573 0.616418,3.36025 0.616418,5.41374 0,4.85354 -1.6028,8.52501 -4.80802,11.014 -3.20541,2.48901 -7.73955,3.73352 -13.6022,3.73352 -3.83545,0 -7.02705,-0.373274 -9.5748,-1.12002 -2.54795,-0.746743 -4.31492,-1.369 -5.30131,-1.86676l2.05486 -11.2941c2.08209,0.933477 4.21883,1.66466 6.41063,2.19354 2.1916,0.528886 4.35597,0.793426 6.49291,0.793426z"/>
   <path id="1234567891011" class="fil6" d="M221.348 71.5716l-12.2461 0 0 -49.0962 12.2461 0 0 49.0962zm1.15056 -63.2837c0,2.55126 -0.726124,4.55807 -2.17798,6.02043 -1.45205,1.46217 -3.16437,2.19335 -5.13675,2.19335 -1.97258,0 -3.6847,-0.731182 -5.13675,-2.19335 -1.45205,-1.46236 -2.17798,-3.46917 -2.17798,-6.02043 0,-2.55126 0.72593,-4.55807 2.17798,-6.02043 1.45205,-1.46217 3.16417,-2.19335 5.13675,-2.19335 1.97238,0 3.6847,0.731182 5.13675,2.19335 1.45186,1.46236 2.17798,3.46917 2.17798,6.02043z"/>
   <path id="123456789101112" class="fil6" d="M246.211 61.5844c2.24645,0 3.83545,-0.248979 4.76678,-0.746743 0.931532,-0.497764 1.3974,-1.46236 1.3974,-2.8936 0,-1.12002 -0.602802,-2.09998 -1.80821,-2.94009 -1.20541,-0.84011 -3.04105,-1.78895 -5.50652,-2.84692 -1.91792,-0.808793 -3.65766,-1.6489 -5.21903,-2.52014 -1.56157,-0.871038 -2.8903,-1.91344 -3.98619,-3.12683 -1.0959,-1.21338 -1.94515,-2.66019 -2.54776,-4.34021 -0.602802,-1.68003 -0.904105,-3.7024 -0.904105,-6.06712 0,-4.60456 1.50671,-8.2449 4.52033,-10.9205 3.01362,-2.67575 7.15037,-4.01362 12.4104,-4.01362 2.63004,0 5.15037,0.264346 7.56138,0.793426 2.41062,0.528886 4.32854,1.10446 5.75317,1.72671l-2.13694 10.8273c-1.42463,-0.560009 -2.97238,-1.05777 -4.64366,-1.49349 -1.67108,-0.435519 -3.54776,-0.653376 -5.62985,-0.653376 -3.83564,0 -5.75317,1.21338 -5.75317,3.64035 0,0.560009 0.0820853,1.05777 0.24645,1.49329 0.164365,0.435713 0.493095,0.855671 0.986385,1.26007 0.493095,0.404591 1.16437,0.84011 2.01342,1.30675 0.849447,0.466836 1.93153,0.980161 3.24645,1.54017 2.68508,1.12002 4.90411,2.22447 6.65727,3.31356 1.75336,1.08889 3.13694,2.27116 4.15056,3.54679 1.01362,1.27563 1.72593,2.69131 2.13694,4.24684 0.41101,1.55573 0.616418,3.36025 0.616418,5.41374 0,4.85354 -1.6028,8.52501 -4.80802,11.014 -3.20541,2.48901 -7.73955,3.73352 -13.6022,3.73352 -3.83545,0 -7.02705,-0.373274 -9.5748,-1.12002 -2.54795,-0.746743 -4.31492,-1.369 -5.30131,-1.86676l2.05486 -11.2941c2.08209,0.933477 4.21883,1.66466 6.41063,2.19354 2.1916,0.528886 4.35597,0.793426 6.49291,0.793426z"/>
   <path id="12345678910111213" class="fil6" d="M274.198 10.248l12.2459 -2.24023 0 14.4676 14.7117 0 0 11.574 -14.7117 0 0 17.2677c0,2.92453 0.452053,5.25793 1.35596,7.0004 0.9043,1.74227 2.72613,2.6135 5.46568,2.6135 1.31492,0 2.67108,-0.140051 4.06828,-0.420152 1.3972,-0.279907 2.67127,-0.668937 3.82183,-1.1667l1.72593 10.8273c-1.47948,0.684498 -3.12313,1.27563 -4.93134,1.77339 -1.80802,0.497958 -4.02724,0.746743 -6.65727,0.746743 -3.34235,0 -6.10933,-0.513325 -8.30093,-1.53997 -2.1916,-1.02684 -3.94515,-2.45789 -5.26007,-4.29372 -1.31492,-1.83564 -2.23284,-4.06011 -2.75336,-6.67361 -0.520522,-2.6135 -0.780588,-5.50711 -0.780588,-8.68062l0 -41.2556z"/>
   <path id="1234567891011121314" class="fil6" d="M309.992 47.3969c0,-4.35577 0.588991,-8.1671 1.76717,-11.434 1.17798,-3.26688 2.72574,-5.98931 4.64366,-8.16729 1.91772,-2.17779 4.12313,-3.82689 6.61604,-4.9469 2.4931,-1.12002 5.05467,-1.68003 7.6847,-1.68003 6.13675,0 10.9858,2.13111 14.5474,6.39371 3.56137,4.26241 5.34216,10.5316 5.34216,18.8076 0,0.808988 -0.0274266,1.69578 -0.0822798,2.66019 -0.0546587,0.9646 -0.109317,1.82008 -0.164171,2.56682l-27.7798 0c0.274072,2.86248 1.45225,5.13364 3.53414,6.81386 2.08209,1.68003 4.87649,2.52014 8.3832,2.52014 2.24665,0 4.45186,-0.233418 6.61623,-0.700059 2.16417,-0.466836 3.93134,-1.04241 5.30112,-1.7269l1.64385 11.2941c-0.65746,0.373274 -1.53414,0.746743 -2.63004,1.12002 -1.0959,0.373274 -2.31492,0.700059 -3.65746,0.979966 -1.34235,0.280102 -2.78059,0.513519 -4.31473,0.700059 -1.53433,0.186734 -3.06847,0.280102 -4.60261,0.280102 -3.8903,0 -7.27369,-0.653376 -10.1504,-1.96013 -2.87649,-1.30675 -5.26007,-3.09571 -7.15017,-5.36706 -1.89049,-2.27116 -3.28769,-4.96247 -4.1918,-8.07373 -0.903911,-3.11127 -1.35616,-6.47151 -1.35616,-10.0805zm28.766 -5.32037c-0.0548532,-1.18226 -0.232834,-2.3334 -0.534333,-3.45342 -0.301304,-1.12021 -0.766972,-2.11574 -1.39701,-2.98697 -0.630228,-0.871038 -1.42482,-1.58666 -2.38359,-2.14667 -0.958764,-0.560203 -2.15056,-0.84011 -3.57518,-0.84011 -1.36977,0 -2.54776,0.264346 -3.53395,0.793426 -0.986385,0.528886 -1.80821,1.22895 -2.46587,2.09998 -0.65746,0.871232 -1.16437,1.88232 -1.52033,3.03366 -0.356351,1.15114 -0.616418,2.31784 -0.780977,3.5001l16.1912 0z"/>
   <path id="123456789101112131415" class="fil6" d="M360.991 24.1554c2.08209,-0.684498 4.76678,-1.32231 8.05428,-1.91344 3.28769,-0.591131 6.73975,-0.886599 10.3558,-0.886599 3.67127,0 6.72574,0.544447 9.16418,1.63334 2.43805,1.08889 4.36958,2.62906 5.79421,4.62031 1.42463,1.99125 2.43824,4.35577 3.04085,7.09377 0.602802,2.7378 0.9043,5.78701 0.9043,9.14707l0 27.7217 -12.2463 0 0 -26.0415c0,-4.48026 -0.520522,-7.65377 -1.56157,-9.52053 -1.04104,-1.86676 -2.98619,-2.80024 -5.83545,-2.80024 -0.876484,0 -1.80802,0.0466836 -2.7944,0.140051 -0.986191,0.0933672 -1.86268,0.202101 -2.62984,0.326591l0 37.8956 -12.2461 0 0 -47.4161z"/>
   <path id="12345678910111213141516" class="fil6" d="M422.757 61.5844c2.24645,0 3.83545,-0.248979 4.76678,-0.746743 0.931532,-0.497764 1.3974,-1.46236 1.3974,-2.8936 0,-1.12002 -0.602802,-2.09998 -1.80821,-2.94009 -1.20541,-0.84011 -3.04105,-1.78895 -5.50652,-2.84692 -1.91792,-0.808793 -3.65766,-1.6489 -5.21903,-2.52014 -1.56157,-0.871038 -2.8903,-1.91344 -3.98619,-3.12683 -1.0959,-1.21338 -1.94515,-2.66019 -2.54776,-4.34021 -0.602802,-1.68003 -0.904105,-3.7024 -0.904105,-6.06712 0,-4.60456 1.50671,-8.2449 4.52033,-10.9205 3.01362,-2.67575 7.15037,-4.01362 12.4104,-4.01362 2.63004,0 5.15037,0.264346 7.56138,0.793426 2.41062,0.528886 4.32854,1.10446 5.75317,1.72671l-2.13694 10.8273c-1.42463,-0.560009 -2.97238,-1.05777 -4.64366,-1.49349 -1.67108,-0.435519 -3.54776,-0.653376 -5.62985,-0.653376 -3.83564,0 -5.75317,1.21338 -5.75317,3.64035 0,0.560009 0.0820853,1.05777 0.24645,1.49329 0.164365,0.435713 0.493095,0.855671 0.986385,1.26007 0.493095,0.404591 1.16437,0.84011 2.01342,1.30675 0.849447,0.466836 1.93153,0.980161 3.24645,1.54017 2.68508,1.12002 4.90411,2.22447 6.65727,3.31356 1.75336,1.08889 3.13694,2.27116 4.15056,3.54679 1.01362,1.27563 1.72593,2.69131 2.13694,4.24684 0.41101,1.55573 0.616418,3.36025 0.616418,5.41374 0,4.85354 -1.6028,8.52501 -4.80802,11.014 -3.20541,2.48901 -7.73955,3.73352 -13.6022,3.73352 -3.83545,0 -7.02705,-0.373274 -9.5748,-1.12002 -2.54795,-0.746743 -4.31492,-1.369 -5.30131,-1.86676l2.05486 -11.2941c2.08209,0.933477 4.21883,1.66466 6.41063,2.19354 2.1916,0.528886 4.35597,0.793426 6.49291,0.793426z"/>
   <path id="1234567891011121314151617" class="fil6" d="M463.401 71.5716l-12.2461 0 0 -49.0962 12.2461 0 0 49.0962zm1.15056 -63.2837c0,2.55126 -0.726124,4.55807 -2.17798,6.02043 -1.45205,1.46217 -3.16437,2.19335 -5.13675,2.19335 -1.97258,0 -3.6847,-0.731182 -5.13675,-2.19335 -1.45205,-1.46236 -2.17798,-3.46917 -2.17798,-6.02043 0,-2.55126 0.72593,-4.55807 2.17798,-6.02043 1.45205,-1.46217 3.16417,-2.19335 5.13675,-2.19335 1.97238,0 3.6847,0.731182 5.13675,2.19335 1.45186,1.46236 2.17798,3.46917 2.17798,6.02043z"/>
  </g>
 </g>
</svg>
